<svg width="191" height="50" viewBox="0 0 191 50" fill="none" xmlns="http://www.w3.org/2000/svg">
<path fill-rule="evenodd" clip-rule="evenodd" d="M17.0326 31.1958C16.834 28.6737 14.7264 26.6914 12.1542 26.6914C9.45131 26.6914 7.26367 28.8806 7.26367 31.5835C7.26367 34.2861 9.45131 36.474 12.1542 36.474C12.2969 36.474 12.437 36.4683 12.5782 36.4562C12.5674 36.3284 12.562 36.1965 12.562 36.0662C12.562 35.9219 12.5702 35.7776 12.5798 35.6378C12.4409 35.6499 12.2969 35.6581 12.1542 35.6581C9.90265 35.6581 8.07953 33.8322 8.07953 31.5835C8.07953 29.3319 9.90265 27.506 12.1542 27.506C14.3215 27.506 16.0931 29.1975 16.2221 31.332C16.2275 31.4134 16.2317 31.499 16.2317 31.5835C16.2317 31.7888 16.2154 31.9925 16.1853 32.1912C15.9542 33.7301 14.8679 34.9863 13.4239 35.4582C13.3928 35.6555 13.3778 35.8609 13.3778 36.0662C13.3778 36.1504 13.3804 36.2331 13.3858 36.3176C15.356 35.8091 16.8476 34.0972 17.0282 32.0116C17.0406 31.8702 17.046 31.729 17.046 31.5835C17.046 31.4516 17.0419 31.321 17.0326 31.1958Z" fill="#0078B3"/>
<path fill-rule="evenodd" clip-rule="evenodd" d="M21.5203 36.3174C21.391 38.4517 19.6194 40.1419 17.4511 40.1419C15.2853 40.1419 13.5137 38.4517 13.3844 36.3174C13.379 36.2329 13.3764 36.1502 13.3764 36.0659C13.3764 35.8606 13.3913 35.6553 13.4225 35.458C13.6523 33.9203 14.7412 32.6629 16.1839 32.1909C16.214 31.9923 16.2302 31.7885 16.2302 31.5832C16.2302 31.4987 16.2261 31.4132 16.2207 31.3318C14.2507 31.8429 12.7605 33.5519 12.5783 35.6375C12.5688 35.7774 12.5605 35.9217 12.5605 36.0659C12.5605 36.1963 12.566 36.3282 12.5768 36.4559C12.7754 38.9754 14.8814 40.9575 17.4511 40.9575C20.0233 40.9575 22.128 38.9754 22.3279 36.4559C22.0533 36.4315 21.7813 36.3867 21.5203 36.3174Z" fill="#F1AB3D"/>
<path fill-rule="evenodd" clip-rule="evenodd" d="M18.6835 31.3319C18.4223 31.2624 18.1518 31.2175 17.8772 31.1956C17.7358 31.181 17.5956 31.1753 17.4516 31.1753C17.3115 31.1753 17.1688 31.181 17.0317 31.1956C17.041 31.3208 17.0451 31.4515 17.0451 31.5834C17.0451 31.7289 17.0397 31.8701 17.0273 32.0115C17.1662 31.9981 17.3102 31.9899 17.4516 31.9899C17.5969 31.9899 17.7386 31.9981 17.8785 32.0115C18.1696 32.0416 18.4494 32.104 18.7214 32.1911C20.1653 32.663 21.253 33.9204 21.484 35.4581C21.7535 35.5465 22.0361 35.6075 22.3257 35.6376C22.1448 33.552 20.6548 31.843 18.6835 31.3319Z" fill="#F1AB3D"/>
<path fill-rule="evenodd" clip-rule="evenodd" d="M23.1785 35.6376C23.0386 35.6497 22.8985 35.658 22.7532 35.658C22.6076 35.658 22.4677 35.6497 22.3261 35.6376C22.0365 35.6075 21.7539 35.5464 21.4844 35.4581C20.0408 34.9861 18.9516 33.73 18.7218 32.191C18.4498 32.104 18.17 32.0416 17.8789 32.0115C18.061 34.0971 19.5498 35.8089 21.5213 36.3175C21.7822 36.3868 22.0543 36.4316 22.3289 36.4561C22.469 36.4682 22.6102 36.4738 22.7532 36.4738C22.8959 36.4738 23.0371 36.4682 23.1759 36.4561C23.1664 36.3283 23.1582 36.1964 23.1582 36.066C23.1582 35.9218 23.1664 35.7775 23.1785 35.6376Z" fill="#1A1919"/>
<path fill-rule="evenodd" clip-rule="evenodd" d="M27.6278 31.1958C27.4308 28.6737 25.3207 26.6914 22.7525 26.6914C20.1826 26.6914 18.074 28.6737 17.877 31.1958C18.1516 31.2177 18.4221 31.2625 18.6833 31.332C18.8123 29.1975 20.5839 27.506 22.7525 27.506C24.9195 27.506 26.6911 29.1975 26.8189 31.332C26.823 31.4134 26.83 31.499 26.83 31.5835C26.83 31.7888 26.8135 31.9925 26.7823 32.1912C26.5526 33.7301 25.4634 34.9863 24.0195 35.4582C23.9896 35.6555 23.9759 35.8609 23.9759 36.0662C23.9759 36.1504 23.9772 36.2331 23.9826 36.3176C25.9541 35.8091 27.4431 34.0972 27.6252 32.0116C27.6374 31.8702 27.6428 31.729 27.6428 31.5835C27.6428 31.4516 27.6386 31.321 27.6278 31.1958Z" fill="#1A1919"/>
<path fill-rule="evenodd" clip-rule="evenodd" d="M32.1192 36.3174C31.9902 38.4517 30.2186 40.1419 28.0513 40.1419C25.8843 40.1419 24.1127 38.4517 23.9833 36.3174C23.9779 36.2329 23.9766 36.1502 23.9766 36.0659C23.9766 35.8606 23.9903 35.6553 24.0202 35.458C24.2512 33.9203 25.3391 32.6629 26.7831 32.1909C26.8142 31.9923 26.8307 31.7885 26.8307 31.5832C26.8307 31.4987 26.8238 31.4132 26.8196 31.3318C24.8497 31.8429 23.3609 33.5519 23.1786 35.6375C23.1664 35.7774 23.1582 35.9217 23.1582 36.0659C23.1582 36.1963 23.1664 36.3282 23.176 36.4559C23.3743 38.9754 25.4819 40.9575 28.0513 40.9575C30.6238 40.9575 32.7298 38.9754 32.9281 36.4559C32.6522 36.4315 32.383 36.3867 32.1192 36.3174Z" fill="#009949"/>
<path fill-rule="evenodd" clip-rule="evenodd" d="M29.2842 31.3319C29.0219 31.2624 28.7512 31.2175 28.4781 31.1956C28.3364 31.181 28.194 31.1753 28.0523 31.1753C27.9111 31.1753 27.7697 31.181 27.6295 31.1956C27.6403 31.3208 27.6445 31.4515 27.6445 31.5834C27.6445 31.7289 27.6391 31.8701 27.627 32.0115C27.7668 31.9981 27.9098 31.9899 28.0523 31.9899C28.1965 31.9899 28.338 31.9981 28.4781 32.0115C28.7689 32.0416 29.0503 32.104 29.3223 32.1911C30.7647 32.663 31.8539 33.9204 32.0836 35.4581C32.3513 35.5465 32.6342 35.6075 32.9237 35.6376C32.7457 33.552 31.2544 31.843 29.2842 31.3319Z" fill="#009949"/>
<path fill-rule="evenodd" clip-rule="evenodd" d="M33.3519 26.6914C30.7809 26.6914 28.6723 28.6737 28.4766 31.1958C28.7496 31.2177 29.0204 31.2625 29.2826 31.332C29.4117 29.1975 31.1833 27.506 33.3519 27.506C35.6008 27.506 37.4265 29.3319 37.4265 31.5835C37.4265 33.8322 35.6008 35.6581 33.3519 35.6581C33.2037 35.6581 33.0636 35.6499 32.9222 35.6378C32.6326 35.6076 32.3498 35.5466 32.0821 35.4582C30.6382 34.9863 29.5477 33.7301 29.3208 32.1912C29.0487 32.1041 28.7674 32.0418 28.4766 32.0116C28.6584 34.0972 30.1487 35.8091 32.1187 36.3176C32.3825 36.3869 32.6517 36.4317 32.9276 36.4562C33.0677 36.4683 33.2076 36.474 33.3519 36.474C36.0522 36.474 38.2411 34.2861 38.2411 31.5835C38.2411 28.8806 36.0522 26.6914 33.3519 26.6914Z" fill="#DB334A"/>
<path fill-rule="evenodd" clip-rule="evenodd" d="M19.54 12.3057L20.8141 14.3423L18.8223 15.668L21.1037 15.9439L20.9867 18.2485L22.7529 16.5923L24.5678 18.2756L24.3965 15.9331L26.6671 15.6448L24.7092 14.3519L25.9736 12.2853L23.6337 13.0288L22.7529 10.7231L21.8461 13.0208L19.54 12.3057Z" fill="#003E43"/>
<path fill-rule="evenodd" clip-rule="evenodd" d="M37.3837 15.0084C38.4837 14.9757 41.2666 15.2559 42.3625 16.1177C42.3654 16.1205 42.3762 16.1272 42.379 16.1287C42.5475 16.255 42.6508 16.1818 42.6603 16.0321C42.6835 15.2477 42.6276 13.9532 41.751 12.4524C40.9622 11.1048 39.0453 8.82775 35.2071 8.91328C33.384 8.9527 31.3785 9.75773 30.3029 9.22061C29.7893 8.96223 29.1269 8.52454 29.3078 7.52656C29.6272 5.75908 30.4011 3.94266 30.2991 3.02221C30.2676 2.75017 30.2066 1.86939 28.9572 1.94668C28.435 1.98094 28.1671 2.36684 28.1168 2.47427C28.1127 2.48225 28.1086 2.48921 28.1073 2.49333C28.1019 2.49616 28.0937 2.50827 28.0828 2.5245C28.046 2.5804 27.9986 2.64841 27.8829 2.67417C27.4955 2.76099 27.1678 2.91066 26.9707 3.00186L26.9068 3.02891C26.7639 3.09305 26.7724 3.18966 26.7778 3.21799C26.7816 3.23706 26.8089 3.32825 26.9367 3.32825H27.0006C27.2018 3.32825 27.4684 3.36483 27.792 3.43954C28.3575 3.57015 28.6581 4.02149 28.5983 4.64697C28.5574 5.07383 28.0854 6.37503 27.607 7.46937C26.7749 9.37827 26.548 10.1001 27.0565 11.3402C27.9401 13.4843 30.1141 14.996 32.4172 15.1511C33.2709 15.3538 33.7498 16.2305 33.9345 16.5352C34.0515 16.7648 34.1602 17.0082 34.2215 17.1551C34.3436 17.4462 34.3096 17.7996 34.239 18.051C34.1249 18.4578 32.4677 22.6968 32.2281 23.0191C32.0447 23.2677 31.9073 23.4336 31.5266 23.4704C31.2888 23.4923 30.4743 23.533 30.2622 23.5356C29.8109 23.5397 29.4276 23.9068 29.4276 24.244L32.3425 24.2427C32.9149 24.2427 33.0262 23.7056 33.3701 22.8125C33.562 22.3135 34.5273 19.9682 34.8454 19.2896C35.0873 18.8125 35.2942 18.4156 35.4055 18.194C35.407 18.1912 35.4096 18.1871 35.4096 18.1871C35.4096 18.1871 35.4109 18.1829 35.4137 18.1801C35.4286 18.1505 35.5034 17.998 35.6244 17.7424C35.7347 17.5005 35.5904 16.9011 35.4286 16.5146C35.3362 16.3408 34.7555 15.0058 33.8706 14.7379C34.9284 14.5081 36.5217 16.7934 36.666 17.0082C36.6984 17.0574 36.7298 17.1061 36.7597 17.1551C37.2371 17.9573 37.2858 18.8574 37.2845 19.4527C37.2845 19.7737 37.2193 22.3691 37.2002 22.652C37.1799 22.9336 37.1376 23.2012 36.8847 23.3671C36.5995 23.5518 35.8135 23.5438 35.4302 23.5397C34.9405 23.533 34.5775 23.9545 34.5775 24.2427H37.5836C38.1833 24.2427 38.2212 23.6227 38.2212 23.2203C38.2212 23.2203 38.2078 21.6051 38.2307 20.7688C38.2552 19.9355 38.4414 18.1314 38.485 17.6064C38.5272 17.0816 38.4048 16.9825 38.2049 16.5651L37.3837 15.0084Z" fill="#003E43"/>
<path fill-rule="evenodd" clip-rule="evenodd" d="M19.9236 4.39832C19.8718 4.32233 18.9364 3.68448 18.9364 3.68448C18.8385 3.62059 18.7746 3.53506 18.7393 3.42609C18.7337 3.40574 18.7228 3.36504 18.7228 3.36504C18.7081 3.27256 18.6564 3.17467 18.5394 3.0863C18.4456 3.01572 17.9711 2.84569 17.7686 2.7764C17.7645 2.77511 17.755 2.77356 17.7426 2.77099C17.9263 2.56026 17.9425 2.51131 17.9752 2.23928C18.001 2.02855 18.001 1.76888 17.9902 1.5852C17.959 1.18693 17.9304 1.1774 17.5646 1.46979C17.1609 1.79335 17.018 1.92267 16.9025 2.70298C16.8848 2.70968 16.867 2.71509 16.8508 2.72204C16.8072 2.39024 16.7147 2.27199 16.4592 2.02185C15.4084 0.985736 15.4326 0.997843 15.3893 1.68052C15.3538 2.22021 15.3649 2.82509 15.8543 3.28879C16.1846 3.60565 16.0499 3.88181 15.9903 4.05029C15.9319 4.21877 15.732 4.71905 15.7361 5.38678C15.7387 5.66268 15.4885 6.10449 15.2343 6.38606C13.5116 8.30578 12.3778 9.47508 11.842 9.84759C11.5756 10.0323 11.2956 10.2119 11.0264 10.3845C10.3736 10.7964 9.69791 11.2261 9.16775 11.8013C8.44179 12.5873 7.88303 13.7836 7.77303 14.7773C7.70477 15.4027 7.72795 17.0478 7.74161 18.0283C7.74573 18.3897 7.95645 19.9233 7.58652 21.037C7.2153 22.1599 6.68514 22.6563 5.00061 23.1169C4.28136 23.313 2.78592 23.4325 1.24695 23.4871C0.934208 23.4977 -0.0609476 23.4856 0.00294023 24.0361C0.0299895 24.2728 0.628165 24.2388 0.911023 24.243H4.89731C6.70291 24.243 7.94022 23.5278 8.67416 22.6236C9.45885 21.6596 10.2989 19.9452 10.9909 19.4408C11.8026 20.0024 11.7454 21.4314 11.7209 21.9275C11.6856 22.6576 11.4613 23.5752 11.7632 23.9871C11.9059 24.1858 12.1779 24.2401 12.5041 24.243H18.6074C18.6074 24.243 18.4946 23.82 18.001 23.5685C17.6543 23.3946 16.9201 23.264 16.122 23.2926C15.7701 23.3047 14.2515 23.3985 13.9331 23.4026C13.6177 23.408 13.3539 23.3591 13.2056 23.2055C13.0577 23.0505 13.0018 22.7908 13.0345 22.2959C13.0438 22.1694 13.0523 22.0226 13.0616 21.8624C13.2396 19.2558 13.9142 17.604 13.9972 16.4401C14.0281 15.997 13.8949 15.267 13.7252 14.9025C13.7782 14.8427 13.8352 14.7773 13.8857 14.7203L14.0459 14.5395C14.0541 14.5312 14.7134 13.7468 15.2956 13.0698C15.2711 13.0466 14.2674 12.0216 14.6456 11.1202C14.7041 12.0432 15.5661 12.5883 15.8108 12.882L16.0241 13.0914C16.3695 13.4354 16.8902 13.9264 16.9948 14.0595C17.2016 14.3014 17.3103 14.5668 17.3606 14.8141C17.4082 15.207 17.0656 15.4885 16.7338 15.4367C16.8711 15.6081 17.0806 15.7307 17.3253 15.7237C17.3335 15.7237 17.358 15.7209 17.3606 15.7209C17.4559 15.7129 17.5551 15.6815 17.6584 15.6258C17.6584 15.6258 17.6584 15.6258 17.661 15.6258C17.6857 15.6122 17.7086 15.5972 17.7346 15.581C17.7862 15.5483 17.8338 15.513 17.8719 15.472C17.8758 15.4707 17.8774 15.4695 17.8786 15.4666C18.2486 15.0915 18.1533 14.4279 17.9943 14.0827C17.8217 13.7115 16.4592 11.6952 16.4592 11.6952C16.7856 11.2384 17.0873 10.7163 17.3116 10.3329L17.3647 10.2404C17.7509 9.5771 17.687 8.85372 17.6393 8.32742C17.6393 8.32742 17.5754 7.80267 17.4626 6.6921C17.3567 5.66268 17.5716 5.47926 18.1885 5.369C18.5204 5.30666 19.2435 5.2657 19.5781 5.20439C19.9643 5.1338 19.9996 4.50703 19.9236 4.39832Z" fill="#003E43"/>
<path fill-rule="evenodd" clip-rule="evenodd" d="M8.97858 46.6151L8.29334 48.4329H9.65791L8.97858 46.6151ZM7.8165 49.8036C7.79846 49.8575 7.76266 49.8812 7.69722 49.8812H7.18483C7.13692 49.8812 7.11914 49.8575 7.11914 49.8276C7.11914 49.8095 7.12507 49.7918 7.13099 49.7678L8.59706 45.882C8.61509 45.8284 8.65064 45.8044 8.71041 45.8044H9.25861C9.3243 45.8044 9.35393 45.8284 9.37788 45.882L10.8262 49.7678C10.8321 49.7856 10.844 49.8095 10.844 49.8276C10.844 49.8575 10.8262 49.8812 10.7723 49.8812H10.2481C10.1824 49.8812 10.1469 49.8575 10.1288 49.8036L9.82484 48.9692H8.12615L7.8165 49.8036Z" fill="#003D42"/>
<path fill-rule="evenodd" clip-rule="evenodd" d="M13.983 45.8998C13.983 45.8583 14.0185 45.8228 14.0543 45.8228H14.5788C14.6146 45.8228 14.6505 45.8583 14.6505 45.8998V48.2781C14.6505 48.743 14.5191 49.1302 14.2689 49.4164C13.9709 49.75 13.5061 49.9409 12.91 49.9409C12.3201 49.9409 11.8551 49.75 11.5573 49.4164C11.3069 49.1302 11.1758 48.743 11.1758 48.2781V45.8998C11.1758 45.8583 11.2057 45.8228 11.2471 45.8228H11.7657C11.8074 45.8228 11.8433 45.8583 11.8433 45.8998V48.2064C11.8433 48.5581 11.9267 48.8263 12.0937 49.0169C12.2843 49.2374 12.5584 49.3386 12.9041 49.3386C13.2617 49.3386 13.536 49.2374 13.7264 49.0169C13.8995 48.8263 13.983 48.5581 13.983 48.2064V45.8998Z" fill="#003D42"/>
<path fill-rule="evenodd" clip-rule="evenodd" d="M15.4013 49.5593C15.3596 49.5356 15.3477 49.4995 15.3714 49.4578L15.5801 49.0168C15.5981 48.981 15.628 48.9632 15.6757 48.9928C15.9377 49.1538 16.2955 49.3684 16.802 49.3684C17.0524 49.3684 17.243 49.3089 17.3682 49.2136C17.5233 49.1002 17.5887 48.9333 17.5887 48.7545C17.5887 48.4804 17.3682 48.3253 17.0761 48.2122C16.7363 48.0752 16.3372 48.0098 15.9557 47.7949C15.628 47.6102 15.3954 47.3541 15.3954 46.8953C15.3954 46.5615 15.5265 46.275 15.7829 46.0787C16.0332 45.8819 16.4027 45.7688 16.8914 45.7688C17.4455 45.7688 17.8628 45.9177 18.131 46.0669C18.1727 46.0906 18.1786 46.1264 18.1609 46.1678L17.9522 46.6032C17.9285 46.6447 17.8927 46.6568 17.851 46.6331C17.5648 46.4662 17.2134 46.3469 16.8555 46.3469C16.5874 46.3469 16.3908 46.4064 16.2715 46.5079C16.1582 46.597 16.0987 46.7163 16.0987 46.8652C16.0987 47.1274 16.3192 47.2645 16.6531 47.3781C17.0343 47.5149 17.4635 47.5806 17.8152 47.807C18.0893 47.9799 18.316 48.2602 18.316 48.7009C18.316 49.1002 18.1488 49.4101 17.8747 49.6247C17.6127 49.8334 17.2371 49.9408 16.8079 49.9408C16.1641 49.9408 15.6996 49.7438 15.4013 49.5593Z" fill="#003D42"/>
<path fill-rule="evenodd" clip-rule="evenodd" d="M22.0286 45.8228C22.0703 45.8228 22.1002 45.8583 22.1002 45.8998V46.3408C22.1002 46.3825 22.0703 46.4127 22.0286 46.4127H20.7413V49.8096C20.7413 49.8513 20.7057 49.8812 20.6637 49.8812H20.1452C20.1034 49.8812 20.0738 49.8513 20.0738 49.8096V46.4127H18.7806C18.7386 46.4127 18.709 46.3825 18.709 46.3408V45.8998C18.709 45.8583 18.7386 45.8228 18.7806 45.8228H22.0286Z" fill="#003D42"/>
<path fill-rule="evenodd" clip-rule="evenodd" d="M23.3943 46.3887V47.8249H24.3598C24.6159 47.8249 24.8186 47.801 24.9856 47.7C25.1584 47.5985 25.2774 47.4078 25.2774 47.1098C25.2774 46.8179 25.1703 46.6273 24.9974 46.5199C24.8364 46.4127 24.6339 46.3887 24.4131 46.3887H23.3943ZM25.0093 48.3255L26.0047 49.756C26.0405 49.8157 26.0523 49.8812 25.9689 49.8812H25.3908C25.3251 49.8812 25.2834 49.8693 25.2478 49.8036L24.2882 48.3852H23.3943V49.8096C23.3943 49.8513 23.3585 49.8812 23.3227 49.8812H22.7982C22.7624 49.8812 22.7266 49.8513 22.7266 49.8096V45.8998C22.7266 45.8583 22.7624 45.8228 22.7982 45.8228H24.4729C24.8663 45.8228 25.212 45.882 25.4802 46.0726C25.7782 46.2872 25.957 46.6448 25.957 47.1039C25.957 47.515 25.7963 47.8489 25.492 48.0812C25.3372 48.2064 25.1821 48.2781 25.0093 48.3255Z" fill="#003D42"/>
<path fill-rule="evenodd" clip-rule="evenodd" d="M28.1915 46.6151L27.5062 48.4329H28.8711L28.1915 46.6151ZM27.0294 49.8036C27.0114 49.8575 26.9758 49.8812 26.9101 49.8812H26.3977C26.3498 49.8812 26.332 49.8575 26.332 49.8276C26.332 49.8095 26.338 49.7918 26.3439 49.7678L27.81 45.882C27.828 45.8284 27.8638 45.8044 27.9233 45.8044H28.4715C28.5372 45.8044 28.5671 45.8284 28.5908 45.882L30.0391 49.7678C30.045 49.7856 30.0571 49.8095 30.0571 49.8276C30.0571 49.8575 30.0391 49.8812 29.9855 49.8812H29.461C29.3956 49.8812 29.3595 49.8575 29.3417 49.8036L29.0377 48.9692H27.3393L27.0294 49.8036Z" fill="#003D42"/>
<path fill-rule="evenodd" clip-rule="evenodd" d="M31.1486 45.8228C31.1847 45.8228 31.2202 45.8583 31.2202 45.8998V49.291H33.1216C33.1631 49.291 33.193 49.3268 33.193 49.3626V49.8096C33.193 49.8513 33.1631 49.8812 33.1216 49.8812H30.6244C30.5885 49.8812 30.5527 49.8513 30.5527 49.8096V45.8998C30.5527 45.8583 30.5885 45.8228 30.6244 45.8228H31.1486Z" fill="#003D42"/>
<path fill-rule="evenodd" clip-rule="evenodd" d="M34.4379 45.8228C34.4737 45.8228 34.5095 45.8583 34.5095 45.8998V49.8096C34.5095 49.8513 34.4737 49.8812 34.4379 49.8812H33.9134C33.8779 49.8812 33.8418 49.8513 33.8418 49.8096V45.8998C33.8418 45.8583 33.8779 45.8228 33.9134 45.8228H34.4379Z" fill="#003D42"/>
<path fill-rule="evenodd" clip-rule="evenodd" d="M36.8516 46.6151L36.1661 48.4329H37.531L36.8516 46.6151ZM35.6895 49.8036C35.6715 49.8575 35.6357 49.8812 35.57 49.8812H35.0576C35.01 49.8812 34.9922 49.8575 34.9922 49.8276C34.9922 49.8095 34.9981 49.7918 35.004 49.7678L36.4701 45.882C36.4881 45.8284 36.5239 45.8044 36.5835 45.8044H37.1317C37.1973 45.8044 37.2272 45.8284 37.2509 45.882L38.6992 49.7678C38.7051 49.7856 38.717 49.8095 38.717 49.8276C38.717 49.8575 38.6992 49.8812 38.6454 49.8812H38.1211C38.0555 49.8812 38.0199 49.8575 38.0019 49.8036L37.6979 48.9692H35.9992L35.6895 49.8036Z" fill="#003D42"/>
<path fill-rule="evenodd" clip-rule="evenodd" d="M93.1289 32.9664C93.123 30.7159 94.9374 28.9018 97.201 28.8977C99.4131 28.9018 101.229 30.7159 101.273 32.9664C101.229 35.1932 99.4131 37.0076 97.201 37.0393C94.9374 37.0076 93.123 35.1932 93.1289 32.9664ZM97.201 35.5392C98.4247 35.5178 99.4379 34.3712 99.4502 32.9664C99.4379 31.5354 98.4247 30.3877 97.201 30.3949C95.9282 30.3877 94.9121 31.5354 94.9526 32.9664C94.9121 34.3712 95.9282 35.5178 97.201 35.5392Z" fill="#1A1919"/>
<path fill-rule="evenodd" clip-rule="evenodd" d="M105.881 30.6104V36.823H104.168V30.6104H101.703V29.2185H108.237V30.6104H105.881Z" fill="#1A1919"/>
<path fill-rule="evenodd" clip-rule="evenodd" d="M110.27 35.1088L109.629 36.8227H107.594L110.807 29.2185H112.948L116.054 36.8227H114.021L113.379 35.1088H110.27ZM111.877 33.8241H112.948L111.877 31.0378L110.807 33.8241H111.877Z" fill="#1A1919"/>
<path fill-rule="evenodd" clip-rule="evenodd" d="M74.3872 30.6104V36.823H72.6746V30.6104H70.3164V29.2185H76.7433V30.6104H74.3872Z" fill="#1A1919"/>
<path fill-rule="evenodd" clip-rule="evenodd" d="M77.1719 32.9664C77.1745 30.7159 78.9893 28.9018 81.2416 28.8977C83.4646 28.9018 85.281 30.7159 85.3127 32.9664C85.281 35.1932 83.4646 37.0076 81.2416 37.0393C78.9893 37.0076 77.1745 35.1932 77.1719 32.9664ZM81.2416 35.5392C82.4787 35.5178 83.4929 34.3712 83.4929 32.9664C83.4929 31.5354 82.4787 30.3877 81.2416 30.3949C79.9775 30.3877 78.9654 31.5354 78.9947 32.9664C78.9654 34.3712 79.9775 35.5178 81.2416 35.5392Z" fill="#1A1919"/>
<path fill-rule="evenodd" clip-rule="evenodd" d="M89.168 36.8227H90.0241V33.9313L93.025 29.2185H91.0965L89.168 32.433L87.3467 29.2185H85.3105L88.3107 33.9313V36.8227H89.168Z" fill="#1A1919"/>
<path fill-rule="evenodd" clip-rule="evenodd" d="M93.1857 0.229004C82.2174 0.285421 73.2406 5.86942 73.311 13.2054C73.3808 20.5306 82.3305 25.95 93.1816 25.95H93.1899C104.04 25.95 112.99 20.5306 113.059 13.2054C113.13 5.86942 104.154 0.285421 93.1857 0.229004ZM93.1816 1.90786H93.1899C99.5598 1.90786 104.581 3.83042 104.581 6.01626C104.581 7.68069 101.834 9.1094 97.8508 9.74571C97.1434 5.45544 95.3229 2.39939 93.1857 2.38702C91.0483 2.39939 89.2265 5.45544 88.5196 9.74571C84.538 9.1094 81.7892 7.68069 81.7892 6.01626C81.7892 3.83042 86.8109 1.90786 93.1816 1.90786ZM95.9553 9.98323C95.0763 10.0595 94.1335 10.1012 93.1868 10.1012H93.1842C92.2377 10.1012 91.2946 10.0595 90.4151 9.98323C90.8917 7.15722 91.9708 5.17979 93.1816 5.17979H93.1899C94.3999 5.17979 95.4798 7.15722 95.9553 9.98323ZM76.1498 13.1774C75.9806 10.6777 76.8111 8.63875 78.3156 6.99003C78.7744 9.05041 81.5213 11.9501 88.2053 12.9349C88.1976 13.199 88.202 13.4607 88.202 13.7312C88.202 18.7392 89.6727 22.7623 91.4605 24.4304C82.9598 23.8878 76.552 19.0908 76.1498 13.1774ZM93.1899 20.5183H93.1816C91.6589 20.5183 90.2374 17.1624 90.1297 13.1498C90.1297 13.1498 90.5643 13.1946 91.1398 13.2242C91.7542 13.2559 92.5291 13.2742 93.1056 13.2752H93.2648C93.8416 13.2742 94.6162 13.2559 95.2314 13.2242C95.8069 13.1946 96.2407 13.1498 96.2407 13.1498C96.1336 17.1624 94.7126 20.5183 93.1899 20.5183ZM94.9097 24.4304C96.6985 22.7623 98.1695 18.7392 98.1695 13.7312C98.1695 13.4607 98.1734 13.199 98.1661 12.9349C104.849 11.9501 107.596 9.05041 108.055 6.99003C109.561 8.63875 110.391 10.6777 110.221 13.1774C109.818 19.0908 103.411 23.8878 94.9097 24.4304Z" fill="#1A1919"/>
<path fill-rule="evenodd" clip-rule="evenodd" d="M131.721 4.59255C131.721 4.91277 131.462 5.17218 131.142 5.17218C130.822 5.17218 130.562 4.91277 130.562 4.59281C130.562 4.2726 130.822 4.01318 131.142 4.01318C131.462 4.01293 131.721 4.2726 131.721 4.59255Z" fill="#1A1919"/>
<path fill-rule="evenodd" clip-rule="evenodd" d="M131.721 9.22878C131.721 9.54874 131.462 9.80841 131.142 9.80841C130.822 9.80841 130.563 9.549 130.563 9.22904C130.562 8.90883 130.822 8.64941 131.142 8.64941C131.462 8.64916 131.721 8.90883 131.721 9.22878Z" fill="#1A1919"/>
<path fill-rule="evenodd" clip-rule="evenodd" d="M131.723 13.865C131.724 14.1852 131.464 14.4446 131.144 14.4446C130.824 14.4446 130.564 14.1852 130.564 13.8653C130.564 13.5451 130.824 13.2856 131.144 13.2856C131.464 13.2854 131.723 13.5451 131.723 13.865Z" fill="#1A1919"/>
<path fill-rule="evenodd" clip-rule="evenodd" d="M131.723 18.5012C131.723 18.8215 131.464 19.0809 131.144 19.0809C130.824 19.0809 130.564 18.8215 130.564 18.5015C130.564 18.1813 130.824 17.9219 131.144 17.9219C131.464 17.9216 131.723 18.1813 131.723 18.5012Z" fill="#1A1919"/>
<path fill-rule="evenodd" clip-rule="evenodd" d="M131.723 23.1375C131.723 23.4577 131.464 23.7171 131.144 23.7171C130.824 23.7171 130.564 23.4577 130.564 23.1377C130.564 22.8175 130.824 22.5581 131.144 22.5581C131.464 22.5581 131.723 22.8175 131.723 23.1375Z" fill="#1A1919"/>
<path fill-rule="evenodd" clip-rule="evenodd" d="M131.725 27.7739C131.726 28.0939 131.466 28.3536 131.146 28.3536C130.826 28.3536 130.566 28.0942 130.566 27.7742C130.566 27.454 130.826 27.1946 131.146 27.1946C131.466 27.1946 131.725 27.4537 131.725 27.7739Z" fill="#1A1919"/>
<path fill-rule="evenodd" clip-rule="evenodd" d="M131.725 32.4099C131.726 32.7299 131.466 32.9896 131.146 32.9896C130.826 32.9896 130.566 32.7301 130.566 32.4102C130.566 32.09 130.826 31.8306 131.146 31.8306C131.466 31.8303 131.725 32.09 131.725 32.4099Z" fill="#1A1919"/>
<path fill-rule="evenodd" clip-rule="evenodd" d="M131.725 37.0464C131.726 37.3664 131.466 37.626 131.146 37.626C130.826 37.626 130.566 37.3666 130.566 37.0467C130.566 36.7265 130.826 36.467 131.146 36.467C131.466 36.4668 131.725 36.7265 131.725 37.0464Z" fill="#1A1919"/>
<path fill-rule="evenodd" clip-rule="evenodd" d="M131.725 41.6826C131.726 42.0029 131.466 42.2623 131.146 42.2623C130.826 42.2623 130.566 42.0029 130.566 41.6829C130.566 41.3627 130.826 41.1033 131.146 41.1033C131.466 41.103 131.725 41.3627 131.725 41.6826Z" fill="#1A1919"/>
<path fill-rule="evenodd" clip-rule="evenodd" d="M131.725 46.3189C131.726 46.6391 131.466 46.8985 131.146 46.8985C130.826 46.8985 130.566 46.6393 130.566 46.3191C130.566 45.9989 130.826 45.7395 131.146 45.7395C131.466 45.7392 131.725 45.9989 131.725 46.3189Z" fill="#1A1919"/>
<path fill-rule="evenodd" clip-rule="evenodd" d="M55.6632 4.59255C55.6632 4.91277 55.4037 5.17218 55.0835 5.17218C54.7636 5.17218 54.5042 4.91277 54.5039 4.59281C54.5039 4.2726 54.7633 4.01318 55.0835 4.01318C55.4035 4.01293 55.6629 4.2726 55.6632 4.59255Z" fill="#1A1919"/>
<path fill-rule="evenodd" clip-rule="evenodd" d="M55.6649 9.22878C55.6649 9.54874 55.4054 9.80841 55.0855 9.80841C54.7655 9.80841 54.5059 9.549 54.5059 9.22904C54.5059 8.90883 54.7653 8.64941 55.0852 8.64941C55.4054 8.64916 55.6649 8.90883 55.6649 9.22878Z" fill="#1A1919"/>
<path fill-rule="evenodd" clip-rule="evenodd" d="M55.6649 13.865C55.6649 14.1852 55.4054 14.4446 55.0855 14.4446C54.7653 14.4446 54.5059 14.1852 54.5059 13.8653C54.5059 13.5451 54.7653 13.2856 55.0852 13.2856C55.4052 13.2854 55.6649 13.5451 55.6649 13.865Z" fill="#1A1919"/>
<path fill-rule="evenodd" clip-rule="evenodd" d="M55.6651 18.5012C55.6651 18.8215 55.4057 19.0809 55.0855 19.0809C54.7655 19.0809 54.5061 18.8215 54.5059 18.5015C54.5059 18.1813 54.7653 17.9219 55.0855 17.9219C55.4054 17.9216 55.6649 18.1813 55.6651 18.5012Z" fill="#1A1919"/>
<path fill-rule="evenodd" clip-rule="evenodd" d="M55.6668 23.1375C55.6668 23.4577 55.4074 23.7171 55.0874 23.7171C54.7672 23.7171 54.5078 23.4577 54.5078 23.1377C54.5078 22.8175 54.7672 22.5581 55.0872 22.5581C55.4074 22.5581 55.6668 22.8175 55.6668 23.1375Z" fill="#1A1919"/>
<path fill-rule="evenodd" clip-rule="evenodd" d="M55.6668 27.7739C55.6668 28.0939 55.4074 28.3536 55.0874 28.3536C54.7672 28.3536 54.5078 28.0942 54.5078 27.7742C54.5078 27.454 54.767 27.1946 55.0872 27.1946C55.4071 27.1946 55.6668 27.4537 55.6668 27.7739Z" fill="#1A1919"/>
<path fill-rule="evenodd" clip-rule="evenodd" d="M55.6668 32.4099C55.6668 32.7299 55.4074 32.9896 55.0874 32.9896C54.7672 32.9896 54.5078 32.7301 54.5078 32.4102C54.5078 32.09 54.767 31.8306 55.0872 31.8306C55.4071 31.8303 55.6668 32.09 55.6668 32.4099Z" fill="#1A1919"/>
<path fill-rule="evenodd" clip-rule="evenodd" d="M55.6668 37.0464C55.6668 37.3664 55.4074 37.626 55.0874 37.626C54.7672 37.626 54.5078 37.3666 54.5078 37.0467C54.5078 36.7265 54.767 36.467 55.0872 36.467C55.4071 36.4668 55.6668 36.7265 55.6668 37.0464Z" fill="#1A1919"/>
<path fill-rule="evenodd" clip-rule="evenodd" d="M55.6668 41.6826C55.6668 42.0029 55.4074 42.2623 55.0874 42.2623C54.7672 42.2623 54.5078 42.0029 54.5078 41.6829C54.5078 41.3627 54.767 41.1033 55.0872 41.1033C55.4071 41.103 55.6668 41.3627 55.6668 41.6826Z" fill="#1A1919"/>
<path fill-rule="evenodd" clip-rule="evenodd" d="M55.6668 46.3189C55.6668 46.6391 55.4074 46.8985 55.0874 46.8985C54.7672 46.8985 54.5078 46.6393 54.5078 46.3191C54.5078 45.9989 54.767 45.7395 55.0872 45.7395C55.4071 45.7392 55.6668 45.9989 55.6668 46.3189Z" fill="#1A1919"/>
<path d="M72.9513 49.0398C74.0018 49.0398 74.7786 48.3021 74.7786 47.2467C74.7786 46.1963 74.0018 45.4731 72.9562 45.4731C71.9155 45.4731 71.1387 46.1914 71.1387 47.2565C71.1387 48.3216 71.9204 49.0398 72.9513 49.0398ZM72.9562 48.4144C72.2966 48.4144 71.8276 47.9307 71.8276 47.2565C71.8276 46.5822 72.2966 46.0985 72.9562 46.0985C73.6207 46.0985 74.0897 46.5822 74.0897 47.2565C74.0897 47.9307 73.6207 48.4144 72.9562 48.4144Z" fill="#1A1919"/>
<path d="M75.4232 48.991H76.0828V47.5692H77.4166V46.9878H76.0828V46.1034H77.485V45.522H75.4232V48.991Z" fill="#1A1919"/>
<path d="M78.0808 48.991H78.7404V47.5692H80.0742V46.9878H78.7404V46.1034H80.1426V45.522H78.0808V48.991Z" fill="#1A1919"/>
<path d="M80.7385 48.991H81.398V45.522H80.7385V48.991Z" fill="#1A1919"/>
<path d="M83.8392 49.0398C84.3474 49.0398 84.7285 48.903 85.0607 48.6685L84.875 48.0871C84.6307 48.263 84.2838 48.4193 83.8881 48.4193C83.1845 48.4193 82.7301 47.9161 82.7301 47.2516C82.7301 46.5725 83.1992 46.0937 83.8881 46.0937C84.235 46.0937 84.5379 46.2256 84.792 46.4063L85.0069 45.8103C84.7138 45.6148 84.3278 45.4731 83.8637 45.4731C82.8132 45.4731 82.0412 46.1963 82.0412 47.2614C82.0412 48.3118 82.7839 49.0398 83.8392 49.0398Z" fill="#1A1919"/>
<path d="M85.6052 48.991H86.2648V45.522H85.6052V48.991Z" fill="#1A1919"/>
<path d="M89.3461 48.991H90.0447L88.7549 45.522H88.0415L86.7517 48.991H87.421L87.763 48.0138H89.004L89.3461 48.991ZM87.9487 47.491L88.3835 46.2451L88.8184 47.491H87.9487Z" fill="#1A1919"/>
<path d="M91.1936 48.3998V45.522H90.534V48.991H92.591V48.3998H91.1936Z" fill="#1A1919"/>
<path d="M95.3856 45.522H94.2032V48.991H94.8628V47.7744H95.3856C96.1673 47.7744 96.5778 47.2076 96.5778 46.6262C96.5778 46.0155 96.1673 45.522 95.3856 45.522ZM95.2488 47.2272H94.8628V46.0692H95.2488C95.6201 46.0692 95.8888 46.2207 95.8888 46.6262C95.8888 47.0171 95.6201 47.2272 95.2488 47.2272Z" fill="#1A1919"/>
<path d="M99.1035 48.991H99.8022L98.5123 45.522H97.799L96.5091 48.991H97.1784L97.5205 48.0138H98.7615L99.1035 48.991ZM97.7061 47.491L98.141 46.2451L98.5758 47.491H97.7061Z" fill="#1A1919"/>
<path d="M102.187 48.991H102.964L102.006 47.5203C102.431 47.3347 102.656 46.9633 102.656 46.5383C102.656 45.9568 102.246 45.522 101.503 45.522H100.291V48.991H100.951V47.6376H101.371L102.187 48.991ZM100.951 46.0692H101.405C101.718 46.0692 101.967 46.2207 101.967 46.5822C101.967 46.9487 101.708 47.1148 101.401 47.1148H100.951V46.0692Z" fill="#1A1919"/>
<path d="M105.538 45.522H103.047V46.0985H103.965V48.991H104.63V46.0985H105.538V45.522Z" fill="#1A1919"/>
<path d="M108.396 45.522V47.9747L106.686 45.522H106.05V48.991H106.681V46.5334L108.396 48.991H109.026V45.522H108.396Z" fill="#1A1919"/>
<path d="M109.868 48.991H111.983V48.4096H110.527V47.535H111.9V46.9731H110.527V46.1034H111.944V45.522H109.868V48.991Z" fill="#1A1919"/>
<path d="M114.617 48.991H115.393L114.436 47.5203C114.861 47.3347 115.086 46.9633 115.086 46.5383C115.086 45.9568 114.675 45.522 113.933 45.522H112.721V48.991H113.38V47.6376H113.801L114.617 48.991ZM113.38 46.0692H113.835C114.148 46.0692 114.397 46.2207 114.397 46.5822C114.397 46.9487 114.138 47.1148 113.83 47.1148H113.38V46.0692Z" fill="#1A1919"/>
<path fill-rule="evenodd" clip-rule="evenodd" d="M170.581 47.5653C170.49 47.8861 167.675 51.7721 164.867 48.7686C162.059 45.7667 164.543 38.3531 165.802 37.637C165.342 39.6208 163.496 42.9703 165.771 46.7186C168.015 50.4179 170.518 47.5594 170.581 47.5653Z" fill="#005896"/>
<path fill-rule="evenodd" clip-rule="evenodd" d="M160.732 41.1827C162.142 37.0303 165.895 36.2925 167.708 35.3674C166.353 34.864 159.078 37.7289 158.581 41.8077C158.085 45.888 162.87 45.5482 163.175 45.4143C163.141 45.3579 159.342 45.2798 160.732 41.1827Z" fill="#AC2034"/>
<path fill-rule="evenodd" clip-rule="evenodd" d="M176.68 41.384C176.654 41.4433 178.768 44.6011 174.616 45.8103C170.403 47.0376 167.648 44.3862 165.85 43.4315C166.214 44.8324 172.736 49.1487 176.361 47.2135C179.988 45.2794 176.964 41.5569 176.68 41.384Z" fill="#008550"/>
<path fill-rule="evenodd" clip-rule="evenodd" d="M182.731 31.084C182.187 31.084 181.727 30.719 181.727 29.9925C181.727 29.2699 182.187 28.9082 182.713 28.9082C183.257 28.9082 183.727 29.291 183.727 30.0172C183.727 30.7576 183.247 31.084 182.731 31.084ZM182.443 31.9612C182.976 31.9612 183.387 31.7154 183.657 31.3648H183.713L183.727 31.4944C183.78 31.7154 183.994 31.8733 184.285 31.8733H184.629C184.717 31.8733 184.766 31.8244 184.766 31.7329V28.2557C184.766 28.1678 184.717 28.1153 184.629 28.1153H183.903C183.815 28.1153 183.78 28.1678 183.762 28.2557L183.717 28.6068L183.661 28.6138C183.366 28.2663 182.927 28.0241 182.418 28.0241C181.541 28.0241 180.696 28.74 180.696 29.9997C180.696 31.2486 181.534 31.9612 182.443 31.9612ZM178.973 31.8733H179.752C179.839 31.8733 179.892 31.8244 179.892 31.7329V28.2557C179.892 28.1678 179.839 28.1153 179.752 28.1153H178.973C178.885 28.1153 178.832 28.1678 178.832 28.2557V31.7329C178.832 31.8244 178.885 31.8733 178.973 31.8733ZM179.366 27.5153C179.71 27.5153 179.994 27.2312 179.994 26.8803C179.994 26.5328 179.681 26.2486 179.337 26.2486C178.99 26.2486 178.73 26.5328 178.73 26.8803C178.73 27.2312 179.018 27.5153 179.366 27.5153ZM176.932 31.8733H177.711C177.799 31.8733 177.851 31.8244 177.851 31.7329L177.837 26.9084C177.837 26.8205 177.776 26.768 177.689 26.768H176.91C176.822 26.768 176.778 26.8205 176.778 26.9084L176.792 31.7329C176.792 31.8244 176.844 31.8733 176.932 31.8733ZM173.771 31.084C173.228 31.084 172.768 30.719 172.768 29.9925C172.768 29.2699 173.228 28.9082 173.754 28.9082C174.298 28.9082 174.768 29.291 174.768 30.0172C174.768 30.7576 174.287 31.084 173.771 31.084ZM173.484 31.9612C174.017 31.9612 174.428 31.7154 174.698 31.3648H174.754L174.768 31.4944C174.82 31.7154 175.034 31.8733 175.326 31.8733H175.67C175.757 31.8733 175.806 31.8244 175.806 31.7329V28.2557C175.806 28.1678 175.757 28.1153 175.67 28.1153H174.943C174.856 28.1153 174.82 28.1678 174.803 28.2557L174.757 28.6068L174.701 28.6138C174.406 28.2663 173.968 28.0241 173.459 28.0241C172.582 28.0241 171.736 28.74 171.736 29.9997C171.736 31.2486 172.575 31.9612 173.484 31.9612ZM169.017 31.8733H169.778C169.87 31.8733 169.919 31.8244 169.919 31.7329V30.0384C169.986 29.4381 170.224 29.1329 170.726 29.1329C170.869 29.1329 170.901 29.1609 170.961 29.1609C171.01 29.1609 171.049 29.1401 171.073 29.0942L171.564 28.2768C171.624 28.1784 171.578 28.1119 171.491 28.0836C171.368 28.0522 171.143 28.038 171.01 28.0416C170.536 28.0594 170.196 28.2768 169.971 28.6068L169.915 28.589L169.877 28.2557C169.859 28.1678 169.824 28.1153 169.736 28.1153H169.013C168.926 28.1153 168.873 28.1678 168.873 28.2557L168.877 31.7329C168.877 31.8244 168.929 31.8733 169.017 31.8733ZM168.086 31.5717L167.897 31.1049C167.869 31.0243 167.802 30.9998 167.718 31.0243C167.637 31.0487 167.567 31.0804 167.399 31.0804C167.09 31.0804 166.872 30.9611 166.872 30.5119V29.4979C166.872 29.3153 166.841 29.1926 166.693 29.1259L166.56 29.0664V28.9927H167.827C167.915 28.9927 167.967 28.9399 167.967 28.8523V28.2557C167.967 28.1678 167.915 28.1153 167.827 28.1153H166.872V27.2976C166.872 27.21 166.82 27.1575 166.735 27.1575H165.971C165.883 27.1575 165.83 27.21 165.83 27.2976V28.1153H165.342C165.251 28.1153 165.199 28.1678 165.199 28.2557V28.8523C165.199 28.9399 165.251 28.9927 165.342 28.9927H165.83V30.4101C165.83 31.4068 166.181 31.9506 167.104 31.9506C167.437 31.9506 167.753 31.8875 168.016 31.7541C168.097 31.7118 168.118 31.6557 168.086 31.5717ZM163.214 31.9365C164.221 31.9365 164.769 31.4102 164.769 30.6981C164.769 29.9856 164.228 29.6909 163.407 29.519C163.032 29.4381 162.684 29.3925 162.684 29.1715C162.684 29.0102 162.881 28.8801 163.239 28.8801C163.555 28.8801 163.863 28.9927 164.134 29.1506C164.197 29.1785 164.274 29.2068 164.327 29.1012L164.555 28.6174C164.59 28.5434 164.597 28.477 164.52 28.4206C164.176 28.1751 163.719 28.0311 163.19 28.0311C162.288 28.0311 161.695 28.4592 161.695 29.1926C161.695 29.9224 162.288 30.1927 163.112 30.347C163.471 30.4209 163.779 30.4768 163.779 30.719C163.779 30.9153 163.569 31.0557 163.207 31.0557C162.817 31.0557 162.397 30.8911 162.144 30.6945C162.074 30.6487 161.996 30.6381 161.94 30.7295L161.653 31.2033C161.614 31.2698 161.607 31.3365 161.674 31.3996C161.996 31.691 162.53 31.9365 163.214 31.9365ZM158.618 31.9576C159.156 31.9576 159.559 31.7577 159.833 31.4279H159.892L159.906 31.5294C159.966 31.7402 160.156 31.8806 160.433 31.8806H160.713C160.801 31.8806 160.853 31.8313 160.853 31.7402V28.2557C160.853 28.1678 160.801 28.1153 160.713 28.1153H159.934C159.846 28.1153 159.791 28.1678 159.791 28.2557V30.0314C159.756 30.7435 159.401 31.0348 158.945 31.0348C158.475 31.0348 158.212 30.7329 158.212 30.2102V28.2557C158.212 28.1678 158.155 28.1153 158.071 28.1153H157.292C157.204 28.1153 157.152 28.1678 157.152 28.2557V30.1576C157.152 31.3331 157.671 31.9576 158.618 31.9576ZM154.369 28.326H154.425C154.422 28.4839 154.429 28.7645 154.492 28.9435L154.938 30.1749H153.664L154.369 28.326ZM156.734 31.7087L154.752 26.947C154.724 26.8767 154.653 26.8417 154.576 26.8417H154.078C154.004 26.8417 153.966 26.8733 153.934 26.947L151.822 31.7087C151.78 31.8066 151.822 31.8733 151.931 31.8733H152.825C152.895 31.8733 152.945 31.8455 152.976 31.7855L153.134 31.4313C153.187 31.3117 153.176 31.2244 153.109 31.1646L152.955 31.0557V30.982H155.253L155.573 31.7682C155.601 31.8417 155.653 31.8733 155.731 31.8733H156.622C156.731 31.8733 156.78 31.8102 156.734 31.7087ZM189.041 24.8333C190.048 24.8333 190.595 24.2511 190.595 23.5391C190.595 22.8268 190.055 22.5875 189.234 22.4156C188.858 22.335 188.511 22.2894 188.511 22.0684C188.511 21.9068 188.708 21.777 189.065 21.777C189.381 21.777 189.69 21.8893 189.96 22.0472C190.023 22.0753 190.1 22.1034 190.153 21.998L190.381 21.514C190.416 21.4401 190.423 21.3736 190.346 21.3174C190.002 21.0719 189.546 20.9279 189.016 20.9279C188.114 20.9279 187.521 21.3561 187.521 22.0895C187.521 22.8193 188.114 23.0893 188.939 23.2439C189.297 23.3175 189.606 23.3737 189.606 23.6158C189.606 23.8121 189.395 23.9525 189.034 23.9525C188.644 23.9525 188.223 23.7877 187.97 23.5911C187.9 23.5455 187.823 23.535 187.767 23.6264L187.479 24.0999C187.441 24.1666 187.433 24.2333 187.5 24.2965C187.823 24.5876 188.356 24.8333 189.041 24.8333ZM185.402 24.8472C186.05 24.8472 186.629 24.5561 186.903 24.1805C186.949 24.1069 186.945 24.0507 186.868 23.9912L186.391 23.5981C186.317 23.5419 186.261 23.5561 186.195 23.6122C186.086 23.7034 185.858 23.9245 185.447 23.9245C184.854 23.9245 184.486 23.4718 184.486 22.8894C184.486 22.3105 184.854 21.8507 185.444 21.8507C185.777 21.8507 185.994 21.998 186.163 22.1665C186.219 22.2227 186.279 22.2438 186.359 22.1876L186.84 21.7806C186.935 21.7105 186.914 21.6366 186.868 21.5841C186.58 21.2121 186.057 20.9279 185.409 20.9279C184.258 20.9279 183.475 21.8157 183.475 22.8894C183.475 23.9631 184.254 24.8472 185.402 24.8472ZM181.757 24.7702H182.536C182.623 24.7702 182.676 24.721 182.676 24.6298V21.1523C182.676 21.0647 182.623 21.0122 182.536 21.0122H181.757C181.669 21.0122 181.616 21.0647 181.616 21.1523V24.6298C181.616 24.721 181.669 24.7702 181.757 24.7702ZM182.15 20.4119C182.494 20.4119 182.778 20.1278 182.778 19.7769C182.778 19.4296 182.494 19.1452 182.15 19.1452C181.802 19.1452 181.515 19.4296 181.515 19.7769C181.515 20.1278 181.802 20.4119 182.15 20.4119ZM178.789 23.9737C178.273 23.9737 177.792 23.6473 177.792 22.9069C177.792 22.1807 178.262 21.7981 178.806 21.7981C179.361 21.7981 179.82 22.1596 179.82 22.8858C179.82 23.6086 179.361 23.9737 178.789 23.9737ZM176.925 26.0333H177.694C177.782 26.0333 177.831 25.9807 177.831 25.8931V24.307L177.887 24.2928C178.168 24.6262 178.568 24.8508 179.08 24.8508C179.985 24.8508 180.824 24.1385 180.824 22.8894C180.824 21.6297 179.975 20.914 179.115 20.914C178.617 20.914 178.185 21.149 177.876 21.4893L177.82 21.4753L177.785 21.149C177.764 21.0611 177.732 21.0086 177.645 21.0086H176.925C176.838 21.0086 176.785 21.0611 176.785 21.149V25.8931C176.785 25.9807 176.838 26.0333 176.925 26.0333ZM169.625 24.7702H170.404C170.492 24.7702 170.545 24.721 170.545 24.6298V22.9069C170.583 22.1946 170.934 21.9068 171.394 21.9068C171.864 21.9068 172.135 22.2088 172.135 22.7245V24.6298C172.135 24.721 172.19 24.7702 172.278 24.7702H173.04C173.131 24.7702 173.18 24.721 173.18 24.6298V22.9069C173.222 22.1946 173.569 21.9068 174.029 21.9068C174.499 21.9068 174.762 22.2088 174.762 22.7245V24.6298C174.762 24.721 174.815 24.7702 174.903 24.7702H175.682C175.769 24.7702 175.819 24.721 175.819 24.6298V22.7245C175.819 21.6121 175.261 20.9279 174.384 20.9279C173.78 20.9279 173.313 21.2296 173.008 21.6508H172.952C172.706 21.1876 172.289 20.9279 171.755 20.9279C171.267 20.9279 170.868 21.135 170.583 21.4578L170.527 21.4401L170.496 21.1523C170.478 21.0647 170.443 21.0122 170.355 21.0122H169.625C169.541 21.0122 169.489 21.0647 169.489 21.1523V24.6298C169.489 24.721 169.541 24.7702 169.625 24.7702ZM165.96 26.2543C166.567 26.2543 167.044 25.8509 167.311 25.1561L168.855 21.177C168.886 21.1034 168.858 21.0122 168.742 21.0122H167.9C167.82 21.0122 167.763 21.0505 167.735 21.1245L167.089 22.9033C167.026 23.0754 167.016 23.2683 167.016 23.4543L166.963 23.486L166.051 21.1245C166.023 21.0505 165.967 21.0122 165.89 21.0122H165.047C164.942 21.0122 164.893 21.0997 164.935 21.177L166.44 24.7527C166.272 25.1808 166.128 25.3421 165.868 25.3421C165.76 25.3421 165.654 25.314 165.553 25.272C165.476 25.2509 165.412 25.2473 165.363 25.3421L165.139 25.8437C165.1 25.9246 165.117 25.9913 165.191 26.0369C165.405 26.1703 165.679 26.2543 165.96 26.2543ZM163.322 24.7702H164.101C164.189 24.7702 164.242 24.721 164.242 24.6298V19.6927C164.242 19.6051 164.189 19.5525 164.101 19.5525H163.322C163.235 19.5525 163.182 19.6051 163.182 19.6927V24.6298C163.182 24.721 163.235 24.7702 163.322 24.7702ZM160.172 23.9817C159.628 23.9817 159.168 23.6169 159.168 22.8904C159.168 22.1675 159.628 21.8064 160.155 21.8064C160.698 21.8064 161.169 22.1887 161.169 22.9151C161.169 23.6555 160.688 23.9817 160.172 23.9817ZM159.885 24.8591C160.418 24.8591 160.828 24.6133 161.098 24.2624H161.154L161.169 24.3923C161.221 24.6133 161.435 24.7712 161.727 24.7712H162.07C162.158 24.7712 162.207 24.722 162.207 24.6308V21.1536C162.207 21.066 162.158 21.0132 162.07 21.0132H161.344C161.256 21.0132 161.221 21.066 161.204 21.1536L161.158 21.5045L161.102 21.5117C160.807 21.1642 160.369 20.922 159.86 20.922C158.983 20.922 158.137 21.6379 158.137 22.8974C158.137 24.1468 158.975 24.8591 159.885 24.8591ZM155.428 24.7712H156.189C156.28 24.7712 156.33 24.722 156.33 24.6308V22.9363C156.396 22.336 156.635 22.0308 157.137 22.0308C157.28 22.0308 157.312 22.0588 157.372 22.0588C157.421 22.0588 157.459 22.038 157.484 21.9921L157.975 21.1747C158.035 21.0766 157.989 21.0096 157.901 20.9815C157.779 20.9501 157.554 20.9362 157.421 20.9395C156.947 20.957 156.606 21.1747 156.382 21.5045L156.326 21.4869L156.287 21.1536C156.27 21.066 156.235 21.0132 156.147 21.0132H155.424C155.336 21.0132 155.284 21.066 155.284 21.1536L155.287 24.6308C155.287 24.722 155.34 24.7712 155.428 24.7712ZM152.272 23.9817C151.728 23.9817 151.268 23.6169 151.268 22.8904C151.268 22.1675 151.728 21.8064 152.255 21.8064C152.798 21.8064 153.269 22.1887 153.269 22.9151C153.269 23.6555 152.788 23.9817 152.272 23.9817ZM151.984 24.8591C152.518 24.8591 152.928 24.6133 153.199 24.2624H153.254L153.269 24.3923C153.321 24.6133 153.535 24.7712 153.827 24.7712H154.17C154.258 24.7712 154.307 24.722 154.307 24.6308V21.1536C154.307 21.066 154.258 21.0132 154.17 21.0132H153.444C153.356 21.0132 153.321 21.066 153.304 21.1536L153.258 21.5045L153.202 21.5117C152.907 21.1642 152.469 20.922 151.96 20.922C151.083 20.922 150.237 21.6379 150.237 22.8974C150.237 24.1468 151.076 24.8591 151.984 24.8591ZM148.138 22.0168H147.138V20.6518H148.138C148.622 20.6518 148.896 20.9854 148.896 21.336C148.896 21.6799 148.636 22.0168 148.138 22.0168ZM148.138 19.7396H146.219C146.131 19.7396 146.078 19.7921 146.078 19.8833V24.6308C146.078 24.722 146.131 24.7712 146.219 24.7712H146.994C147.085 24.7712 147.138 24.722 147.138 24.6308V23.4342C147.138 23.2554 147.103 23.1256 146.955 23.0625L146.822 23.0027V22.9291H148.138C149.211 22.9291 149.931 22.2587 149.931 21.3151C149.931 20.364 149.205 19.7396 148.138 19.7396ZM176.438 5.03815C174.852 3.2359 172.361 1.41613 170.856 0.789356C170.727 1.14332 170.556 1.78812 171.561 2.62098C174.964 5.44028 177.572 9.41472 175.602 12.807C175.393 13.1663 175.332 13.086 174.685 12.825C172.42 11.9112 170.718 12.3159 170.188 12.5151C169.689 12.7019 169.52 12.8546 169.196 13.2683C168.881 13.6725 168.611 14.0018 168.222 14.4564C168.155 14.5353 168.198 14.5819 168.251 14.5703C170.885 13.8972 172.979 14.2264 174.709 15.2702C175.128 15.5227 175.242 15.65 175.242 15.65C175.242 15.65 175.215 15.7296 175.102 15.6786C173.453 14.9302 172.572 14.9701 172.581 15.0732C173.693 15.8648 174.553 16.9883 174.863 17.4218C174.93 17.5158 175.031 17.656 175.135 17.6954C175.836 17.9595 177.111 16.2028 177.519 15.5997C180.141 11.7286 179.015 7.96694 176.438 5.03815ZM160.988 7.04598C160.376 7.71165 159.806 8.39381 159.97 9.35934C160.24 10.9509 162.756 13.7068 163.526 13.6393C164.211 13.579 165.016 12.7057 165.374 12.3507C166.783 10.9524 167.918 9.04247 168.035 6.95427C168.129 5.28855 167.158 3.78848 165.302 2.73046C163.551 1.73273 161.255 1.21983 158.662 1.24662C158.394 1.24945 158.123 1.25821 157.851 1.27264C157.915 1.13894 158.147 0.829544 158.489 0.695585C160.02 0.0966374 162.145 0.336474 163.762 0.583267C163.924 0.607997 164.256 0.668536 164.418 0.703829C164.738 0.335186 165.311 0.00698844 165.959 0.000142484C166.699 -0.00743784 167.536 0.288301 167.812 0.68219C167.772 0.89575 167.794 1.40273 168.064 1.73196C168.295 2.0143 168.44 2.13177 168.802 2.39969C169.582 2.97674 170.241 3.68749 170.615 4.34183C171.811 6.43261 170.791 8.90517 169.985 10.3803C169.238 11.7443 168.042 13.4221 166.872 14.4905C165.876 15.3988 164.314 16.65 162.878 16.2636C162.157 16.0699 161.503 15.6175 160.941 15.1409C159.087 13.5692 156.705 10.1976 158.057 7.62252C159.234 5.38129 162.447 3.51489 164.063 3.12255C164.152 3.38789 164.202 3.98581 163.575 4.55719C162.771 5.28958 161.665 6.30895 160.988 7.04598Z" fill="#1F5999"/>
</svg>
